#!OML:ASF I:\Actors\actors\Patient Classification 1\Patient 1\Session 1\Subject1.ASF
:FULLY-SPECIFIED
:DEGREES
457
root 0.713569 17.5766 8.914 11.9633 1.03736 -12.5211
lowerback 7.33538 4.98751 0.485704
upperback -6.46563 6.96965 1.45267
thorax -11.1884 3.39645 0.109681
lowerneck -17.8872 5.54631 9.90621
upperneck 18.0701 4.29064 2.98937
head 8.81369 3.03871 -0.0264493
rclavicle -5.76476e-014 -1.90833e-014
rhumerus -1.1845 60.2966 -111.769
rradius 48.1668
rwrist -37.3858
rhand 15.1142 -58.2928
rfingers 7.12502
rthumb 39.9592 -443.531
lclavicle -5.76476e-014 -1.90833e-014
lhumerus 23.305 46.7175 100.771
lradius 13.5049
lwrist -1.82843
lhand -21.1788 17.6486
lfingers 7.12502
lthumb 5.20166 47.5648
rfemur -8.83315 22.7094 27.3763
rtibia 1.44353
rfoot -9.89406 -24.1312
rtoes 3.76843
lfemur -3.50783 -43.2479 -1.90284
ltibia -3.14477
lfoot -16.8389 50.4928
ltoes 7.03221
458
root 0.725679 17.5676 8.92949 12.3269 1.0209 -12.7264
lowerback 6.95057 5.15492 0.456377
upperback -6.54127 7.1742 1.30838
thorax -11.0278 3.49609 -0.0287031
lowerneck -17.9089 5.45415 10.0699
upperneck 17.9264 4.12127 2.99566
head 8.76766 2.96653 -0.0739794
rclavicle 6.39093e-014 -1.82882e-014
rhumerus 0.444359 61.3236 -109.903
rradius 48.5311
rwrist -38.4395
rhand 14.1922 -57.8276
rfingers 7.12502
rthumb 39.0907 -443.322
lclavicle 6.39093e-014 -1.82882e-014
lhumerus 21.1168 42.1549 98.016
lradius 14.523
lwrist 3.20765
lhand -21.2845 18.1321
lfingers 7.12502
lthumb 5.09963 48.0507
rfemur -9.21092 22.4793 27.4502
rtibia 1.41856
rfoot -9.71713 -23.8442
rtoes 3.27011
lfemur -3.94352 -43.3986 -1.38588
ltibia -3.12221
lfoot -17.1231 50.783
ltoes 7.31893
459
root 0.73512 17.5647 8.9412 12.5322 0.967565 -12.8515
lowerback 6.81899 5.35402 0.291042
upperback -6.6021 7.41063 1.1696
thorax -11.0221 3.61783 -0.115519
lowerneck -18.0034 5.27612 10.0386
upperneck 17.7985 3.81586 3.29488
head 8.72556 2.84989 -0.00742067
rclavicle 1.72943e-014 1.03368e-014
rhumerus 1.09435 59.8609 -110.046
rradius 47.3967
rwrist -36.6101
rhand 14.5054 -57.4594
rfingers 7.12502
rthumb 39.3858 -442.868
lclavicle 1.72943e-014 1.03368e-014
lhumerus 18.873 36.7693 95.2564
lradius 15.9292
lwrist 9.10886
lhand -21.5917 18.6003
lfingers 7.12502
lthumb 4.80299 48.5259
rfemur -9.422 22.16 27.4868
rtibia 1.37867
rfoot -9.45167 -23.4815
rtoes 2.28719
lfemur -4.17642 -43.5123 -1.12825
ltibia -3.06657
lfoot -17.4253 51.0046
ltoes 7.56573
460
root 0.742252 17.5666 8.95029 12.5916 0.994382 -12.9492
lowerback 6.87708 5.52746 0.103871
upperback -6.60873 7.61368 1.0606
thorax -11.0768 3.72395 -0.170008
lowerneck -18.1077 5.09456 9.96241
upperneck 17.6761 3.5343 3.51266
head 8.68832 2.73259 0.0417786
rclavicle 1.13307e-014 -1.03368e-014
rhumerus 1.96766 58.6476 -109.832
rradius 46.5269
rwrist -34.9311
rhand 15.104 -57.1258
rfingers 7.12502
rthumb 39.9496 -442.367
lclavicle 1.13307e-014 -1.03368e-014
lhumerus 16.7293 30.768 92.6336
lradius 17.9083
lwrist 15.753
lhand -21.9168 19.3244
lfingers 7.12502
lthumb 4.48907 49.2568
rfemur -9.46001 21.9595 27.5426
rtibia 1.33592
rfoot -9.347 -23.2959
rtoes 1.84963
lfemur -4.33752 -43.3639 -0.960286
ltibia -2.96305
lfoot -17.444 50.8751
ltoes 7.65974
461
root 0.743384 17.5726 8.96764 12.4653 1.06299 -13.0522
lowerback 7.01436 5.67584 -0.115596
upperback -6.553 7.78002 0.982349
thorax -11.1181 3.81553 -0.173774
lowerneck -18.3221 4.89492 9.80833
upperneck 17.7182 3.21937 3.76879
head 8.7248 2.6061 0.117007
rclavicle -4.07509e-015 -3.02153e-014
rhumerus 2.97419 57.8932 -109.303
rradius 46.0165
rwrist -34.3227
rhand 14.8136 -56.4546
rfingers 7.12502
rthumb 39.6762 -441.778
lclavicle -4.07509e-015 -3.02153e-014
lhumerus 14.88 24.9506 90.333
lradius 20.2901
lwrist 22.0893
lhand -22.0384 20.2976
lfingers 7.12502
lthumb 4.37167 50.2325
rfemur -9.14025 22.1852 27.7229
rtibia 1.17944
rfoot -9.46996 -23.5444
rtoes 2.27283
lfemur -4.07397 -43.3846 -1.0176
ltibia -2.9954
lfoot -17.4823 50.8101
ltoes 7.71453
462
root 0.737613 17.5829 8.99362 12.1555 1.16683 -13.1039
lowerback 7.24383 5.81799 -0.445404
upperback -6.46023 7.92454 0.919877
thorax -11.1921 3.90426 -0.106584
lowerneck -18.5525 4.65794 9.6112
upperneck 17.8704 2.84264 4.09704
head 8.80067 2.461 0.217388
rclavicle 2.70347e-014 1.90833e-014
rhumerus 3.95408 57.3613 -108.628
rradius 45.811
rwrist -34.5083
rhand 13.9595 -55.9232
rfingers 7.12502
rthumb 38.8714 -441.48
lclavicle 2.70347e-014 1.90833e-014
lhumerus 13.3517 19.6597 88.3968
lradius 22.7742
lwrist 27.67
lhand -21.9933 21.0505
lfingers 7.12502
lthumb 4.4152 50.9845
rfemur -8.46223 22.8176 27.9729
rtibia 0.88945
rfoot -9.75359 -24.2149
rtoes 3.38677
lfemur -3.3496 -43.7099 -1.38465
ltibia -3.19454
lfoot -17.5628 50.9619
ltoes 7.62201
